<svg viewBox="0 0 1024 1024" xmlns="http://www.w3.org/2000/svg" width="64" height="64">
    <path
        d="M384 76.8H179.2c-56.32 0-102.4 46.08-102.4 102.4V384c0 56.32 46.08 102.4 102.4 102.4H384c56.32 0 102.4-46.08 102.4-102.4V179.2c0-56.32-46.08-102.4-102.4-102.4zM435.2 384c0 28.16-23.04 51.2-51.2 51.2H179.2c-28.16 0-51.2-23.04-51.2-51.2V179.2c0-28.16 23.04-51.2 51.2-51.2H384c28.16 0 51.2 23.04 51.2 51.2V384zM844.8 76.8H640c-56.32 0-102.4 46.08-102.4 102.4V384c0 56.32 46.08 102.4 102.4 102.4h204.8c56.32 0 102.4-46.08 102.4-102.4V179.2c0-56.32-46.08-102.4-102.4-102.4zM896 384c0 28.16-23.04 51.2-51.2 51.2H640c-28.16 0-51.2-23.04-51.2-51.2V179.2c0-28.16 23.04-51.2 51.2-51.2h204.8c28.16 0 51.2 23.04 51.2 51.2V384zm-51.2 153.6H640c-56.32 0-102.4 46.08-102.4 102.4v204.8c0 56.32 46.08 102.4 102.4 102.4h204.8c56.32 0 102.4-46.08 102.4-102.4V640c0-56.32-46.08-102.4-102.4-102.4zM896 844.8c0 28.16-23.04 51.2-51.2 51.2H640c-28.16 0-51.2-23.04-51.2-51.2V640c0-28.16 23.04-51.2 51.2-51.2h204.8c28.16 0 51.2 23.04 51.2 51.2v204.8zM384 537.6H179.2c-56.32 0-102.4 46.08-102.4 102.4v204.8c0 56.32 46.08 102.4 102.4 102.4H384c56.32 0 102.4-46.08 102.4-102.4V640c0-56.32-46.08-102.4-102.4-102.4zm51.2 307.2c0 28.16-23.04 51.2-51.2 51.2H179.2c-28.16 0-51.2-23.04-51.2-51.2V640c0-28.16 23.04-51.2 51.2-51.2H384c28.16 0 51.2 23.04 51.2 51.2v204.8z"
        fill="#BFBFBF" />
</svg>