<?xml version="1.0" standalone="no"?>
<!DOCTYPE svg PUBLIC "-//W3C//DTD SVG 1.1//EN" "http://www.w3.org/Graphics/SVG/1.1/DTD/svg11.dtd"><svg t="1721806742092"
    class="icon" viewBox="0 0 1024 1024" version="1.1" xmlns="http://www.w3.org/2000/svg" p-id="1771" width="64"
    height="64" xmlns:xlink="http://www.w3.org/1999/xlink">
    <path
        d="M384 76.8H179.2c-56.32 0-102.4 46.08-102.4 102.4v204.8c0 56.32 46.08 102.4 102.4 102.4h204.8c56.32 0 102.4-46.08 102.4-102.4V179.2c0-56.32-46.08-102.4-102.4-102.4z m51.2 307.2c0 28.16-23.04 51.2-51.2 51.2H179.2c-28.16 0-51.2-23.04-51.2-51.2V179.2c0-28.16 23.04-51.2 51.2-51.2h204.8c28.16 0 51.2 23.04 51.2 51.2v204.8zM844.8 76.8h-204.8c-56.32 0-102.4 46.08-102.4 102.4v204.8c0 56.32 46.08 102.4 102.4 102.4h204.8c56.32 0 102.4-46.08 102.4-102.4V179.2c0-56.32-46.08-102.4-102.4-102.4z m51.2 307.2c0 28.16-23.04 51.2-51.2 51.2h-204.8c-28.16 0-51.2-23.04-51.2-51.2V179.2c0-28.16 23.04-51.2 51.2-51.2h204.8c28.16 0 51.2 23.04 51.2 51.2v204.8zM844.8 537.6h-204.8c-56.32 0-102.4 46.08-102.4 102.4v204.8c0 56.32 46.08 102.4 102.4 102.4h204.8c56.32 0 102.4-46.08 102.4-102.4v-204.8c0-56.32-46.08-102.4-102.4-102.4z m51.2 307.2c0 28.16-23.04 51.2-51.2 51.2h-204.8c-28.16 0-51.2-23.04-51.2-51.2v-204.8c0-28.16 23.04-51.2 51.2-51.2h204.8c28.16 0 51.2 23.04 51.2 51.2v204.8zM384 537.6H179.2c-56.32 0-102.4 46.08-102.4 102.4v204.8c0 56.32 46.08 102.4 102.4 102.4h204.8c56.32 0 102.4-46.08 102.4-102.4v-204.8c0-56.32-46.08-102.4-102.4-102.4z m51.2 307.2c0 28.16-23.04 51.2-51.2 51.2H179.2c-28.16 0-51.2-23.04-51.2-51.2v-204.8c0-28.16 23.04-51.2 51.2-51.2h204.8c28.16 0 51.2 23.04 51.2 51.2v204.8z"
        fill="#BFBFBF" p-id="1772"></path>
</svg>