<svg width="200" height="200" viewBox="0 0 1024 1024" xmlns="http://www.w3.org/2000/svg">
    <path fill="#FCFCFC"
        d="M512 192c179.2 0 320 140.8 320 320S691.2 832 512 832 192 691.2 192 512s140.8-320 320-320m0-64c-211.2 0-384 172.8-384 384s172.8 384 384 384 384-172.8 384-384-172.8-384-384-384z" />
    <path fill="#FCFCFC"
        d="M544 416h236.8c-6.4-12.8-12.8-32-19.2-44.8H544V416zM544 608v44.8h217.6c6.4-12.8 12.8-32 19.2-44.8H544zM544 723.2V768h96c25.6-12.8 44.8-25.6 64-44.8H544zM800 492.8H544v44.8h256V512v-19.2zM544 300.8h160c-19.2-19.2-38.4-32-64-44.8h-96v44.8z" />
</svg>