<svg xmlns="http://www.w3.org/2000/svg" xmlns:xlink="http://www.w3.org/1999/xlink" width="507pt" height="1270pt" viewBox="0.00 0.00 507.14 1270.40">
<g id="graph0" class="graph" transform="scale(1 1) rotate(0) translate(4 1266.4)">
<title>G</title>
<polygon fill="white" stroke="none" points="-4,4 -4,-1266.4 503.14,-1266.4 503.14,4 -4,4"/>
<!-- 0 -->
<g id="node1" class="node">
<title>0</title>
<polygon fill="#d6ffcc" stroke="#d6ffcc" points="420.38,-1262.4 58.9,-1262.4 58.9,-1226.4 420.38,-1226.4 420.38,-1262.4"/>
<text text-anchor="middle" x="239.64" y="-1240.2" font-family="Times,serif" font-size="14.00">Entry&lt;MyCaseFallThrough: int unreachableSwitchBranch()&gt;</text>
</g>
<!-- 1 -->
<g id="node2" class="node">
<title>1</title>
<polygon fill="#d6ffcc" stroke="#d6ffcc" points="269.29,-1173.6 210,-1173.6 210,-1137.6 269.29,-1137.6 269.29,-1173.6"/>
<text text-anchor="middle" x="239.64" y="-1151.4" font-family="Times,serif" font-size="14.00">0: x = 2</text>
</g>
<!-- 0&#45;&gt;1 -->
<g id="edge1" class="edge">
<title>0-&gt;1</title>
<path fill="none" stroke="black" d="M239.64,-1226.25C239.64,-1214.56 239.64,-1198.79 239.64,-1185.22"/>
<polygon fill="black" stroke="black" points="243.14,-1185.52 239.64,-1175.52 236.14,-1185.52 243.14,-1185.52"/>
<text text-anchor="middle" x="262.97" y="-1195.8" font-family="Times,serif" font-size="14.00">ENTRY</text>
</g>
<!-- 2 -->
<g id="node3" class="node">
<title>2</title>
<polygon fill="#d6ffcc" stroke="#d6ffcc" points="276.03,-1084.8 203.25,-1084.8 203.25,-1048.8 276.03,-1048.8 276.03,-1084.8"/>
<text text-anchor="middle" x="239.64" y="-1062.6" font-family="Times,serif" font-size="14.00">1: goto 13</text>
</g>
<!-- 1&#45;&gt;2 -->
<g id="edge2" class="edge">
<title>1-&gt;2</title>
<path fill="none" stroke="black" d="M239.64,-1137.45C239.64,-1125.76 239.64,-1109.99 239.64,-1096.42"/>
<polygon fill="black" stroke="black" points="243.14,-1096.72 239.64,-1086.72 236.14,-1096.72 243.14,-1096.72"/>
<text text-anchor="middle" x="294.86" y="-1107" font-family="Times,serif" font-size="14.00">FALL_THROUGH</text>
</g>
<!-- 14 -->
<g id="node15" class="node">
<title>14</title>
<polygon fill="#d6ffcc" stroke="#d6ffcc" points="268.84,-996 210.45,-996 210.45,-960 268.84,-960 268.84,-996"/>
<text text-anchor="middle" x="239.64" y="-973.8" font-family="Times,serif" font-size="14.00">13: nop</text>
</g>
<!-- 2&#45;&gt;14 -->
<g id="edge3" class="edge">
<title>2-&gt;14</title>
<path fill="none" stroke="black" d="M239.64,-1048.65C239.64,-1036.96 239.64,-1021.19 239.64,-1007.62"/>
<polygon fill="black" stroke="black" points="243.14,-1007.92 239.64,-997.92 236.14,-1007.92 243.14,-1007.92"/>
<text text-anchor="middle" x="259.08" y="-1018.2" font-family="Times,serif" font-size="14.00">GOTO</text>
</g>
<!-- 3 -->
<g id="node4" class="node">
<title>3</title>
<polygon fill="#d6ffcc" stroke="#d6ffcc" points="71.64,-712.8 17.64,-712.8 17.64,-676.8 71.64,-676.8 71.64,-712.8"/>
<text text-anchor="middle" x="44.64" y="-690.6" font-family="Times,serif" font-size="14.00">2: nop</text>
</g>
<!-- 4 -->
<g id="node5" class="node">
<title>4</title>
<polygon fill="#d6ffcc" stroke="#d6ffcc" points="73.29,-607.2 0,-607.2 0,-571.2 73.29,-571.2 73.29,-607.2"/>
<text text-anchor="middle" x="36.64" y="-585" font-family="Times,serif" font-size="14.00">3: y = 100</text>
</g>
<!-- 3&#45;&gt;4 -->
<g id="edge4" class="edge">
<title>3-&gt;4</title>
<path fill="none" stroke="black" d="M43.32,-676.69C42.11,-661.04 40.3,-637.57 38.87,-619.02"/>
<polygon fill="black" stroke="black" points="42.37,-618.89 38.11,-609.19 35.39,-619.43 42.37,-618.89"/>
<text text-anchor="middle" x="97.05" y="-637.8" font-family="Times,serif" font-size="14.00">FALL_THROUGH</text>
</g>
<!-- 5 -->
<g id="node6" class="node">
<title>5</title>
<polygon fill="#d6ffcc" stroke="#d6ffcc" points="103.03,-356.4 30.25,-356.4 30.25,-320.4 103.03,-320.4 103.03,-356.4"/>
<text text-anchor="middle" x="66.64" y="-334.2" font-family="Times,serif" font-size="14.00">4: goto 16</text>
</g>
<!-- 4&#45;&gt;5 -->
<g id="edge5" class="edge">
<title>4-&gt;5</title>
<path fill="none" stroke="black" d="M38.75,-570.7C43.85,-528.41 56.89,-420.29 63.16,-368.25"/>
<polygon fill="black" stroke="black" points="66.63,-368.73 64.35,-358.38 59.68,-367.89 66.63,-368.73"/>
<text text-anchor="middle" x="104.42" y="-496.2" font-family="Times,serif" font-size="14.00">FALL_THROUGH</text>
</g>
<!-- 17 -->
<g id="node18" class="node">
<title>17</title>
<polygon fill="#d6ffcc" stroke="#d6ffcc" points="243.84,-213.6 185.45,-213.6 185.45,-177.6 243.84,-177.6 243.84,-213.6"/>
<text text-anchor="middle" x="214.64" y="-191.4" font-family="Times,serif" font-size="14.00">16: nop</text>
</g>
<!-- 5&#45;&gt;17 -->
<g id="edge6" class="edge">
<title>5-&gt;17</title>
<path fill="none" stroke="black" d="M81.02,-320.13C93.61,-305.35 112.67,-283.77 130.76,-266.4 147.48,-250.35 167.37,-233.69 183.59,-220.68"/>
<polygon fill="black" stroke="black" points="185.35,-223.76 191,-214.8 180.99,-218.28 185.35,-223.76"/>
<text text-anchor="middle" x="150.2" y="-280.2" font-family="Times,serif" font-size="14.00">GOTO</text>
</g>
<!-- 6 -->
<g id="node7" class="node">
<title>6</title>
<polygon fill="#d6ffcc" stroke="#d6ffcc" points="189.64,-712.8 135.64,-712.8 135.64,-676.8 189.64,-676.8 189.64,-712.8"/>
<text text-anchor="middle" x="162.64" y="-690.6" font-family="Times,serif" font-size="14.00">5: nop</text>
</g>
<!-- 7 -->
<g id="node8" class="node">
<title>7</title>
<polygon fill="#d6ffcc" stroke="#d6ffcc" points="196.29,-607.2 123,-607.2 123,-571.2 196.29,-571.2 196.29,-607.2"/>
<text text-anchor="middle" x="159.64" y="-585" font-family="Times,serif" font-size="14.00">6: y = 200</text>
</g>
<!-- 6&#45;&gt;7 -->
<g id="edge7" class="edge">
<title>6-&gt;7</title>
<path fill="none" stroke="black" d="M159.99,-676.39C159.26,-670.79 158.56,-664.55 158.2,-658.8 157.38,-645.78 157.52,-631.35 157.96,-619.09"/>
<polygon fill="black" stroke="black" points="161.45,-619.36 158.4,-609.21 154.46,-619.05 161.45,-619.36"/>
<text text-anchor="middle" x="213.42" y="-637.8" font-family="Times,serif" font-size="14.00">FALL_THROUGH</text>
</g>
<!-- 8 -->
<g id="node9" class="node">
<title>8</title>
<polygon fill="#d6ffcc" stroke="#d6ffcc" points="241.64,-518.4 187.64,-518.4 187.64,-482.4 241.64,-482.4 241.64,-518.4"/>
<text text-anchor="middle" x="214.64" y="-496.2" font-family="Times,serif" font-size="14.00">7: nop</text>
</g>
<!-- 7&#45;&gt;8 -->
<g id="edge8" class="edge">
<title>7-&gt;8</title>
<path fill="none" stroke="black" d="M158.47,-570.76C158.54,-560.14 160.1,-546.69 166.2,-536.4 169.34,-531.1 173.64,-526.38 178.37,-522.25"/>
<polygon fill="black" stroke="black" points="180.22,-525.24 186.03,-516.38 175.96,-519.69 180.22,-525.24"/>
<text text-anchor="middle" x="221.42" y="-540.6" font-family="Times,serif" font-size="14.00">FALL_THROUGH</text>
</g>
<!-- 9 -->
<g id="node10" class="node">
<title>9</title>
<polygon fill="#d6ffcc" stroke="#d6ffcc" points="251.29,-410.4 178,-410.4 178,-374.4 251.29,-374.4 251.29,-410.4"/>
<text text-anchor="middle" x="214.64" y="-388.2" font-family="Times,serif" font-size="14.00">8: y = 300</text>
</g>
<!-- 8&#45;&gt;9 -->
<g id="edge9" class="edge">
<title>8-&gt;9</title>
<path fill="none" stroke="black" d="M214.64,-482.37C214.64,-466.16 214.64,-441.46 214.64,-422.19"/>
<polygon fill="black" stroke="black" points="218.14,-422.25 214.64,-412.25 211.14,-422.25 218.14,-422.25"/>
<text text-anchor="middle" x="269.86" y="-442.2" font-family="Times,serif" font-size="14.00">FALL_THROUGH</text>
</g>
<!-- 10 -->
<g id="node11" class="node">
<title>10</title>
<polygon fill="#d6ffcc" stroke="#d6ffcc" points="251.03,-302.4 178.25,-302.4 178.25,-266.4 251.03,-266.4 251.03,-302.4"/>
<text text-anchor="middle" x="214.64" y="-280.2" font-family="Times,serif" font-size="14.00">9: goto 16</text>
</g>
<!-- 9&#45;&gt;10 -->
<g id="edge10" class="edge">
<title>9-&gt;10</title>
<path fill="none" stroke="black" d="M214.64,-374.37C214.64,-358.16 214.64,-333.46 214.64,-314.19"/>
<polygon fill="black" stroke="black" points="218.14,-314.25 214.64,-304.25 211.14,-314.25 218.14,-314.25"/>
<text text-anchor="middle" x="269.86" y="-334.2" font-family="Times,serif" font-size="14.00">FALL_THROUGH</text>
</g>
<!-- 10&#45;&gt;17 -->
<g id="edge11" class="edge">
<title>10-&gt;17</title>
<path fill="none" stroke="black" d="M214.64,-266.25C214.64,-254.56 214.64,-238.79 214.64,-225.22"/>
<polygon fill="black" stroke="black" points="218.14,-225.52 214.64,-215.52 211.14,-225.52 218.14,-225.52"/>
<text text-anchor="middle" x="234.08" y="-235.8" font-family="Times,serif" font-size="14.00">GOTO</text>
</g>
<!-- 11 -->
<g id="node12" class="node">
<title>11</title>
<polygon fill="#d6ffcc" stroke="#d6ffcc" points="407.84,-712.8 349.45,-712.8 349.45,-676.8 407.84,-676.8 407.84,-712.8"/>
<text text-anchor="middle" x="378.64" y="-690.6" font-family="Times,serif" font-size="14.00">10: nop</text>
</g>
<!-- 12 -->
<g id="node13" class="node">
<title>12</title>
<polygon fill="#d6ffcc" stroke="#d6ffcc" points="423.79,-607.2 343.5,-607.2 343.5,-571.2 423.79,-571.2 423.79,-607.2"/>
<text text-anchor="middle" x="383.64" y="-585" font-family="Times,serif" font-size="14.00">11: y = 666</text>
</g>
<!-- 11&#45;&gt;12 -->
<g id="edge12" class="edge">
<title>11-&gt;12</title>
<path fill="none" stroke="black" d="M384,-676.52C385.49,-670.92 386.9,-664.65 387.64,-658.8 389.29,-645.75 388.78,-631.22 387.66,-618.9"/>
<polygon fill="black" stroke="black" points="391.14,-618.52 386.56,-608.96 384.18,-619.28 391.14,-618.52"/>
<text text-anchor="middle" x="443.92" y="-637.8" font-family="Times,serif" font-size="14.00">FALL_THROUGH</text>
</g>
<!-- 13 -->
<g id="node14" class="node">
<title>13</title>
<polygon fill="#d6ffcc" stroke="#d6ffcc" points="418.53,-464.4 338.75,-464.4 338.75,-428.4 418.53,-428.4 418.53,-464.4"/>
<text text-anchor="middle" x="378.64" y="-442.2" font-family="Times,serif" font-size="14.00">12: goto 16</text>
</g>
<!-- 12&#45;&gt;13 -->
<g id="edge13" class="edge">
<title>12-&gt;13</title>
<path fill="none" stroke="black" d="M383.03,-570.94C382.19,-547.29 380.67,-504.52 379.66,-476.04"/>
<polygon fill="black" stroke="black" points="383.17,-476.19 379.31,-466.32 376.17,-476.44 383.17,-476.19"/>
<text text-anchor="middle" x="437.6" y="-540.6" font-family="Times,serif" font-size="14.00">FALL_THROUGH</text>
</g>
<!-- 13&#45;&gt;17 -->
<g id="edge14" class="edge">
<title>13-&gt;17</title>
<path fill="none" stroke="black" d="M373.51,-428.09C365.76,-403.26 349.7,-356.55 328.64,-320.4 303.21,-276.74 293.22,-267.49 257.64,-231.6 254.12,-228.04 250.25,-224.49 246.32,-221.08"/>
<polygon fill="black" stroke="black" points="248.82,-218.6 238.9,-214.87 244.33,-223.97 248.82,-218.6"/>
<text text-anchor="middle" x="366.24" y="-334.2" font-family="Times,serif" font-size="14.00">GOTO</text>
</g>
<!-- 15 -->
<g id="node16" class="node">
<title>15</title>
<polygon fill="#d6ffcc" stroke="#d6ffcc" points="268.84,-907.2 210.45,-907.2 210.45,-871.2 268.84,-871.2 268.84,-907.2"/>
<text text-anchor="middle" x="239.64" y="-885" font-family="Times,serif" font-size="14.00">14: nop</text>
</g>
<!-- 14&#45;&gt;15 -->
<g id="edge15" class="edge">
<title>14-&gt;15</title>
<path fill="none" stroke="black" d="M239.64,-959.85C239.64,-948.16 239.64,-932.39 239.64,-918.82"/>
<polygon fill="black" stroke="black" points="243.14,-919.12 239.64,-909.12 236.14,-919.12 243.14,-919.12"/>
<text text-anchor="middle" x="294.86" y="-929.4" font-family="Times,serif" font-size="14.00">FALL_THROUGH</text>
</g>
<!-- 16 -->
<g id="node17" class="node">
<title>16</title>
<polygon fill="#d6ffcc" stroke="#d6ffcc" points="391.65,-818.4 87.64,-818.4 87.64,-782.4 391.65,-782.4 391.65,-818.4"/>
<text text-anchor="middle" x="239.64" y="-796.2" font-family="Times,serif" font-size="14.00">15: tableswitch (x) {1-&gt;2, 2-&gt;5, 3-&gt;7, default-&gt;10}</text>
</g>
<!-- 15&#45;&gt;16 -->
<g id="edge16" class="edge">
<title>15-&gt;16</title>
<path fill="none" stroke="black" d="M239.64,-871.05C239.64,-859.36 239.64,-843.59 239.64,-830.02"/>
<polygon fill="black" stroke="black" points="243.14,-830.32 239.64,-820.32 236.14,-830.32 243.14,-830.32"/>
<text text-anchor="middle" x="294.86" y="-840.6" font-family="Times,serif" font-size="14.00">FALL_THROUGH</text>
</g>
<!-- 16&#45;&gt;3 -->
<g id="edge17" class="edge">
<title>16-&gt;3</title>
<path fill="none" stroke="black" d="M109.39,-781.9C90.07,-777.22 74.02,-771.44 66.19,-764.4 54.88,-754.22 49.46,-738.19 46.88,-724.18"/>
<polygon fill="black" stroke="black" points="50.38,-723.97 45.52,-714.56 43.45,-724.95 50.38,-723.97"/>
<text text-anchor="middle" x="114.42" y="-751.8" font-family="Times,serif" font-size="14.00">SWITCH_CASE</text>
<text text-anchor="middle" x="114.42" y="-735" font-family="Times,serif" font-size="14.00">[case 1]</text>
</g>
<!-- 16&#45;&gt;6 -->
<g id="edge18" class="edge">
<title>16-&gt;6</title>
<path fill="none" stroke="black" d="M199.99,-782.03C192.54,-777.24 185.45,-771.39 180.19,-764.4 171.6,-752.96 167.19,-737.75 164.94,-724.55"/>
<polygon fill="black" stroke="black" points="168.41,-724.12 163.62,-714.67 161.47,-725.05 168.41,-724.12"/>
<text text-anchor="middle" x="228.42" y="-751.8" font-family="Times,serif" font-size="14.00">SWITCH_CASE</text>
<text text-anchor="middle" x="228.42" y="-735" font-family="Times,serif" font-size="14.00">[case 2]</text>
</g>
<!-- 16&#45;&gt;8 -->
<g id="edge19" class="edge">
<title>16-&gt;8</title>
<path fill="none" stroke="black" d="M263.71,-782.1C268.95,-777.04 273.78,-771.06 276.64,-764.4 286.66,-741.13 289.42,-558.28 276.64,-536.4 271.05,-526.81 261.75,-519.65 252.03,-514.38"/>
<polygon fill="black" stroke="black" points="253.79,-511.34 243.26,-510.21 250.79,-517.66 253.79,-511.34"/>
<text text-anchor="middle" x="333.44" y="-646.2" font-family="Times,serif" font-size="14.00">SWITCH_CASE</text>
<text text-anchor="middle" x="333.44" y="-629.4" font-family="Times,serif" font-size="14.00">[case 3]</text>
</g>
<!-- 16&#45;&gt;11 -->
<g id="edge20" class="edge">
<title>16-&gt;11</title>
<path fill="none" stroke="black" d="M275.7,-782.08C285.4,-776.86 295.68,-770.81 304.64,-764.4 322.46,-751.66 340.53,-735 354.35,-721.28"/>
<polygon fill="black" stroke="black" points="356.75,-723.83 361.3,-714.26 351.78,-718.91 356.75,-723.83"/>
<text text-anchor="middle" x="404.86" y="-743.4" font-family="Times,serif" font-size="14.00">SWITCH_DEFAULT</text>
</g>
<!-- 18 -->
<g id="node19" class="node">
<title>18</title>
<polygon fill="#d6ffcc" stroke="#d6ffcc" points="255.3,-124.8 173.98,-124.8 173.98,-88.8 255.3,-88.8 255.3,-124.8"/>
<text text-anchor="middle" x="214.64" y="-102.6" font-family="Times,serif" font-size="14.00">17: return y</text>
</g>
<!-- 17&#45;&gt;18 -->
<g id="edge21" class="edge">
<title>17-&gt;18</title>
<path fill="none" stroke="black" d="M214.64,-177.45C214.64,-165.76 214.64,-149.99 214.64,-136.42"/>
<polygon fill="black" stroke="black" points="218.14,-136.72 214.64,-126.72 211.14,-136.72 218.14,-136.72"/>
<text text-anchor="middle" x="269.86" y="-147" font-family="Times,serif" font-size="14.00">FALL_THROUGH</text>
</g>
<!-- 19 -->
<g id="node20" class="node">
<title>19</title>
<polygon fill="#d6ffcc" stroke="#d6ffcc" points="391.5,-36 37.79,-36 37.79,0 391.5,0 391.5,-36"/>
<text text-anchor="middle" x="214.64" y="-13.8" font-family="Times,serif" font-size="14.00">Exit&lt;MyCaseFallThrough: int unreachableSwitchBranch()&gt;</text>
</g>
<!-- 18&#45;&gt;19 -->
<g id="edge22" class="edge">
<title>18-&gt;19</title>
<path fill="none" stroke="black" d="M214.64,-88.65C214.64,-76.96 214.64,-61.19 214.64,-47.62"/>
<polygon fill="black" stroke="black" points="218.14,-47.92 214.64,-37.92 211.14,-47.92 218.14,-47.92"/>
<text text-anchor="middle" x="242.64" y="-58.2" font-family="Times,serif" font-size="14.00">RETURN</text>
</g>
</g>
</svg>